<?xml version="1.0" encoding="iso-8859-1"?>
<!-- Generator: Adobe Illustrator 18.1.1, SVG Export Plug-In . SVG Version: 6.00 Build 0)  -->
<svg version="1.1" id="Capa_1" xmlns="http://www.w3.org/2000/svg" xmlns:xlink="http://www.w3.org/1999/xlink" x="0px" y="0px"
	 viewBox="0 0 54.958 54.958" style="enable-background:new 0 0 54.958 54.958;" xml:space="preserve">
<g>
	<g>
		<path style="fill:#56228b;" d="M8.966,10.25c-2.287,0.276-3.769,0.483-3.769,0.483C2.291,11.62,0,13.06,0,15.93v11.785v3.834v3.09
			v11.326v0.107c0,2.87,2.262,4.287,5.197,5.197c0,0,1.49,0.193,3.769,0.451V10.25z"/>
		<path style="fill:#56228b;" d="M54.958,31.85V15.93c0-2.87-2.35-4.347-5.197-5.197c0,0-1.668-0.232-4.198-0.535v41.565
			c2.537-0.279,4.198-0.493,4.198-0.493c3.031-0.982,5.197-2.327,5.197-5.197V34.79l0,0L54.958,31.85L54.958,31.85z"/>
		<path style="fill:#56228b;" d="M42.562,9.856c-1.127-0.122-2.329-0.246-3.577-0.364l-0.266-3.124
			c-0.043-2.463-2.059-4.453-4.531-4.453h-13.42c-2.473,0-4.488,1.99-4.531,4.453l-0.272,3.124c-1.404,0.133-2.754,0.273-4,0.41
			v42.146c4.79,0.497,11.115,1.041,15.512,0.993c4.664-0.025,10.537-0.508,15.085-0.963V9.856z M27.477,8.829
			c-2.467,0-5.338,0.154-8.182,0.375l0.227-2.614l0.006-0.143c0-0.684,0.557-1.239,1.24-1.239h13.42c0.684,0,1.24,0.556,1.24,1.239
			l0.234,2.757C32.819,8.983,29.946,8.829,27.477,8.829z"/>
	</g>
</g>
<g>
</g>
<g>
</g>
<g>
</g>
<g>
</g>
<g>
</g>
<g>
</g>
<g>
</g>
<g>
</g>
<g>
</g>
<g>
</g>
<g>
</g>
<g>
</g>
<g>
</g>
<g>
</g>
<g>
</g>
</svg>
